#!OML:ASF F:\VICON\USERDATA\INSTALL\rory3\rory3.ASF
:FULLY-SPECIFIED
:DEGREES
1664
root -1.06534 17.5931 -4.92623 -0.0686589 22.8918 -1.93684
lowerback 5.5157 -4.34988 -4.68512
upperback -2.35388 -6.11483 1.23245
thorax -4.91344 -2.85744 4.45898
lowerneck -27.6145 -6.06761 -12.5417
upperneck 21.9915 -5.29556 7.08897
head 12.3865 -2.4799 3.78455
rclavicle -3.75206e-015 1.78906e-015
rhumerus 55.5033 -4.18693 -51.2149
rradius 41.8891
rwrist 51.8031
rhand -67.899 -31.1055
rfingers 7.12502
rthumb -39.6341 -56.4409
lclavicle -3.75206e-015 1.78906e-015
lhumerus 67.7656 -6.76838 56.3276
lradius 32.9413
lwrist -40.031
lhand -52.5937 60.7965
lfingers 7.12502
lthumb -25.0765 89.1701
rfemur -23.0968 -10.4693 20.7775
rtibia 39.2344
rfoot -8.27775 3.97155
rtoes 14.6463
lfemur -7.52802 16.5232 -16.2668
ltibia 43.3517
lfoot -17.2485 -0.733642
ltoes -29.6695
1665
root -1.05767 17.6064 -4.95071 -0.130054 22.714 -2.12147
lowerback 5.39625 -4.34074 -4.23779
upperback -2.13811 -6.05845 1.2259
thorax -4.66991 -2.85644 4.17725
lowerneck -29.0673 -6.22379 -12.5709
upperneck 22.5004 -5.29465 7.02303
head 12.8565 -2.47347 3.76695
rclavicle 1.349e-013 1.03368e-014
rhumerus 56.3947 -4.56399 -50.7043
rradius 41.1959
rwrist 51.7407
rhand -66.9419 -28.0076
rfingers 7.12502
rthumb -38.732 -53.6039
lclavicle 1.349e-013 1.03368e-014
lhumerus 68.3368 -6.21549 56.1272
lradius 32.9175
lwrist -39.9723
lhand -52.4983 62.0408
lfingers 7.12502
lthumb -24.9851 -90.4272
rfemur -22.8038 -10.495 21.1404
rtibia 38.4719
rfoot -8.67999 3.50939
rtoes 15.7689
lfemur -8.11859 16.2325 -15.6723
ltibia 44.7219
lfoot -17.0999 -2.94698
ltoes -29.4884
1666
root -1.05015 17.6033 -4.97838 -0.377954 22.2901 -2.36898
lowerback 5.40067 -4.19608 -3.7593
upperback -2.03945 -5.83121 1.14538
thorax -4.64533 -2.76157 3.80832
lowerneck -29.3409 -6.26728 -12.5513
upperneck 22.5162 -5.33941 7.06835
head 12.9193 -2.48023 3.77199
rclavicle 9.80195e-014 -7.55382e-015
rhumerus 56.8085 -4.85497 -50.2091
rradius 40.439
rwrist 51.5169
rhand -65.8529 -26.2068
rfingers 7.12502
rthumb -37.704 -52.0859
lclavicle 9.80195e-014 -7.55382e-015
lhumerus 68.7017 -6.02046 56.0066
lradius 32.8307
lwrist -39.9977
lhand -52.5174 63.3163
lfingers 7.12502
lthumb -25.0034 -91.7
rfemur -22.5059 -10.3902 21.5783
rtibia 37.7948
rfoot -9.29662 2.6731
rtoes 14.4764
lfemur -8.29765 15.9655 -14.9544
ltibia 45.8911
lfoot -16.9855 -4.94723
ltoes -29.4618
1667
root -1.04199 17.5958 -5.00808 -0.788658 21.6643 -2.65697
lowerback 5.4657 -3.9922 -3.30619
upperback -1.77349 -5.52342 1.13508
thorax -4.47337 -2.63094 3.51526
lowerneck -29.9468 -6.34595 -12.479
upperneck 22.5531 -5.37087 6.98565
head 13.044 -2.4886 3.71838
rclavicle 4.60808e-014 6.75868e-015
rhumerus 57.3853 -5.20438 -49.8244
rradius 39.7249
rwrist 51.3375
rhand -64.8777 -25.143
rfingers 7.12502
rthumb -36.782 -51.2636
lclavicle 4.60808e-014 6.75868e-015
lhumerus 69.1838 -5.59516 55.8858
lradius 32.6885
lwrist -40.0959
lhand -52.2216 63.758
lfingers 7.12502
lthumb -24.7199 -92.1809
rfemur -22.0738 -10.2311 22.0257
rtibia 37.1639
rfoot -9.66435 2.12467
rtoes 12.1548
lfemur -8.10037 15.7922 -14.1666
ltibia 46.8419
lfoot -17.0593 -5.77938
ltoes -30.0012
1668
root -1.0323 17.5932 -5.044 -1.03016 20.9399 -2.68628
lowerback 5.46892 -3.79178 -3.13493
upperback -1.70878 -5.24409 1.09203
thorax -4.4489 -2.49908 3.35141
lowerneck -29.8037 -6.25273 -12.2806
upperneck 22.408 -5.2659 6.73125
head 12.9313 -2.46086 3.60276
rclavicle 3.58185e-014 3.57812e-015
rhumerus 57.6802 -5.2034 -49.4821
rradius 39.1565
rwrist 50.9653
rhand -63.4937 -23.7782
rfingers 7.12502
rthumb -35.4711 -50.2229
lclavicle 3.58185e-014 3.57812e-015
lhumerus 69.2767 -5.27877 55.6086
lradius 32.5346
lwrist -40.0465
lhand -51.8588 63.4392
lfingers 7.12502
lthumb -24.3721 -91.9094
rfemur -21.7815 -9.93171 22.1441
rtibia 36.6925
rfoot -9.60041 2.12854
rtoes 12.6297
lfemur -7.80438 15.547 -13.6998
ltibia 47.56
lfoot -17.2193 -5.45282
ltoes -30.2348
1669
root -1.01696 17.584 -5.07866 -1.23456 20.0402 -2.68335
lowerback 5.40387 -3.56519 -2.89922
upperback -1.66633 -4.92561 1.00154
thorax -4.41928 -2.34993 3.09525
lowerneck -29.5268 -6.15071 -12.256
upperneck 22.2409 -5.18225 6.78589
head 12.8044 -2.4163 3.63558
rclavicle -1.50082e-014 7.55382e-015
rhumerus 57.9114 -5.13505 -49.4465
rradius 38.6818
rwrist 50.5222
rhand -61.199 -21.6967
rfingers 7.12502
rthumb -33.2925 -48.6348
lclavicle -1.50082e-014 7.55382e-015
lhumerus 69.2113 -5.02156 55.4045
lradius 32.4259
lwrist -40.017
lhand -51.8541 62.8826
lfingers 7.12502
lthumb -24.3677 -91.3533
rfemur -21.6281 -9.36542 22.1434
rtibia 36.4272
rfoot -9.2379 2.44222
rtoes 14.202
lfemur -7.34032 15.437 -13.2801
ltibia 48.1174
lfoot -17.1522 -4.14299
ltoes -30.0979
1670
root -0.994993 17.5656 -5.11238 -1.37997 18.9378 -2.5265
lowerback 5.24011 -3.28445 -2.79519
upperback -1.72376 -4.54529 0.863569
thorax -4.43233 -2.16489 2.8557
lowerneck -28.786 -5.94969 -12.1892
upperneck 22.0751 -5.04415 6.84299
head 12.5865 -2.35199 3.67522
rclavicle 4.62174e-015 -4.37326e-015
rhumerus 57.9282 -4.94913 -49.7346
rradius 38.4392
rwrist 50.2249
rhand -61.4241 -21.8327
rfingers 7.12502
rthumb -33.5065 -48.7247
lclavicle 4.62174e-015 -4.37326e-015
lhumerus 68.8581 -4.8947 55.3498
lradius 32.3524
lwrist -39.9906
lhand -52.0209 61.9649
lfingers 7.12502
lthumb -24.5275 -90.4141
rfemur -21.6384 -8.63993 21.9459
rtibia 36.4022
rfoot -8.8152 2.68815
rtoes 13.5794
lfemur -6.68745 15.4506 -13.0389
ltibia 48.5432
lfoot -16.6964 -2.3535
ltoes -29.1684
1671
root -0.973398 17.5443 -5.15033 -1.53133 17.7358 -2.26803
lowerback 5.10909 -2.96016 -2.75897
upperback -1.56455 -4.1085 0.752765
thorax -4.23168 -1.95677 2.67145
lowerneck -28.9575 -5.89533 -12.1641
upperneck 22.1288 -4.93643 6.77666
head 12.6244 -2.30951 3.66651
rclavicle -7.94393e-014 -1.55052e-014
rhumerus 58.2164 -5.02592 -50.2317
rradius 38.481
rwrist 50.1345
rhand -61.3003 -21.5026
rfingers 7.12502
rthumb -33.3889 -48.4199
lclavicle -7.94393e-014 -1.55052e-014
lhumerus 68.8194 -4.50575 55.4221
lradius 32.3208
lwrist -40.0184
lhand -51.8221 61.2212
lfingers 7.12502
lthumb -24.3369 -270.304
rfemur -21.7375 -7.89478 21.6488
rtibia 36.572
rfoot -8.46878 2.92977
rtoes 13.0356
lfemur -5.91549 15.4655 -12.8962
ltibia 48.8779
lfoot -16.3427 -1.11553
ltoes -27.7644
1672
root -0.95347 17.5285 -5.18961 -1.65033 16.6188 -1.94463
lowerback 5.05862 -2.73412 -2.9199
upperback -2.10253 -3.83 0.619644
thorax -4.78079 -1.79745 2.61891
lowerneck -26.5629 -5.40496 -12.0402
upperneck 21.714 -4.58018 6.65456
head 11.9748 -2.19114 3.6684
rclavicle 2.88859e-014 3.77691e-015
rhumerus 57.2882 -4.07418 -50.7114
rradius 38.9189
rwrist 49.911
rhand -61.61 -22.0773
rfingers 7.12502
rthumb -33.6832 -48.9308
lclavicle 2.88859e-014 3.77691e-015
lhumerus 67.4642 -4.79334 55.1985
lradius 32.4998
lwrist -39.6517
lhand -51.4225 60.8668
lfingers 7.12502
lthumb -23.9538 -270.608
rfemur -21.9249 -7.4045 21.304
rtibia 36.8756
rfoot -8.09661 3.31876
rtoes 14.0021
lfemur -5.13464 15.4379 -12.8214
ltibia 49.1217
lfoot -16.2744 -0.623875
ltoes -26.6472
